# xmcd
#
# Track frame offsets: 
#        150
#        28531
#        53975
#        81499
#        116910
#        140548
#        173208
#        209615
#        231511
#        271680
#        300720
#
# Disc length: 4335 seconds
#
# Revision: 0
# Processed by: cddbd v1.5.2PL0 Copyright (c) Steve Scherf et al.
# Submitted via: ExactAudioCopy v0.99pb4
#
DISCID=a210ed0b
DTITLE=Enrico Crivellaro - The Blues Guitar Of Enrico Crivellaro
DYEAR=2009
DGENRE=Blues
TTITLE0=Say No More
TTITLE1=Sweet And Skanky
TTITLE2=Last Night In Atlanta
TTITLE3=Hubert
TTITLE4=Casa Babylon
TTITLE5=Blues For Larry Johnson
TTITLE6=Midnight Blue
TTITLE7=Guitar Rumba
TTITLE8=Come On In This House
TTITLE9=Cape Flats
TTITLE10=Dano-Mite
EXTD=
EXTT0=
EXTT1=
EXTT2=
EXTT3=
EXTT4=
EXTT5=
EXTT6=
EXTT7=
EXTT8=
EXTT9=
EXTT10=
PLAYORDER=
